<mxfile host="app.diagrams.net" agent="Mozilla/5.0 (Macintosh; Intel Mac OS X 10_15_7) AppleWebKit/537.36 (KHTML, like Gecko) Chrome/130.0.0.0 Safari/537.36" version="24.8.6">
  <diagram name="Page-1" id="_-m_Ba8PTYf77YLxq2VC">
    <mxGraphModel dx="1194" dy="535" grid="1" gridSize="10" guides="1" tooltips="1" connect="1" arrows="1" fold="1" page="1" pageScale="1" pageWidth="850" pageHeight="1100" math="0" shadow="0">
      <root>
        <mxCell id="0" />
        <mxCell id="1" parent="0" />
        <mxCell id="xTFKu_umEHdOj2WIsu32-1" value="" style="edgeStyle=orthogonalEdgeStyle;rounded=0;orthogonalLoop=1;jettySize=auto;html=1;exitX=0.5;exitY=1;exitDx=0;exitDy=0;" parent="1" source="xTFKu_umEHdOj2WIsu32-11" target="xTFKu_umEHdOj2WIsu32-2" edge="1">
          <mxGeometry relative="1" as="geometry">
            <mxPoint x="405" y="60" as="sourcePoint" />
          </mxGeometry>
        </mxCell>
        <mxCell id="xTFKu_umEHdOj2WIsu32-2" value="Logs in with credentials" style="rounded=1;whiteSpace=wrap;html=1;fillColor=#FFFFFF;strokeColor=#ff0000;" parent="1" vertex="1">
          <mxGeometry x="317.5" y="100" width="175" height="60" as="geometry" />
        </mxCell>
        <mxCell id="xTFKu_umEHdOj2WIsu32-3" style="edgeStyle=orthogonalEdgeStyle;rounded=0;orthogonalLoop=1;jettySize=auto;html=1;exitX=0;exitY=0.5;exitDx=0;exitDy=0;entryX=1;entryY=0.5;entryDx=0;entryDy=0;" parent="1" source="xTFKu_umEHdOj2WIsu32-6" target="xTFKu_umEHdOj2WIsu32-8" edge="1">
          <mxGeometry relative="1" as="geometry" />
        </mxCell>
        <mxCell id="xTFKu_umEHdOj2WIsu32-4" value="No" style="edgeLabel;html=1;align=center;verticalAlign=middle;resizable=0;points=[];" parent="xTFKu_umEHdOj2WIsu32-3" vertex="1" connectable="0">
          <mxGeometry x="-0.1676" y="3" relative="1" as="geometry">
            <mxPoint as="offset" />
          </mxGeometry>
        </mxCell>
        <mxCell id="xTFKu_umEHdOj2WIsu32-5" value="Yes" style="edgeStyle=orthogonalEdgeStyle;rounded=0;orthogonalLoop=1;jettySize=auto;html=1;entryX=0.5;entryY=0;entryDx=0;entryDy=0;" parent="1" source="xTFKu_umEHdOj2WIsu32-6" edge="1" target="nn4d1DukJBM_2EQo3KXl-1">
          <mxGeometry relative="1" as="geometry">
            <mxPoint x="405" y="340" as="targetPoint" />
          </mxGeometry>
        </mxCell>
        <mxCell id="xTFKu_umEHdOj2WIsu32-6" value="Credentials Verified?" style="rhombus;whiteSpace=wrap;html=1;fillColor=#FFFFFF;strokeColor=#ff0000;rounded=1;" parent="1" vertex="1">
          <mxGeometry x="332.5" y="190" width="145" height="80" as="geometry" />
        </mxCell>
        <mxCell id="xTFKu_umEHdOj2WIsu32-7" style="edgeStyle=orthogonalEdgeStyle;rounded=0;orthogonalLoop=1;jettySize=auto;html=1;entryX=0.5;entryY=0;entryDx=0;entryDy=0;" parent="1" source="xTFKu_umEHdOj2WIsu32-8" target="xTFKu_umEHdOj2WIsu32-9" edge="1">
          <mxGeometry relative="1" as="geometry" />
        </mxCell>
        <mxCell id="xTFKu_umEHdOj2WIsu32-8" value="Display Error Message" style="whiteSpace=wrap;html=1;fillColor=#FFFFFF;strokeColor=#ff0000;rounded=1;" parent="1" vertex="1">
          <mxGeometry x="120" y="200" width="120" height="60" as="geometry" />
        </mxCell>
        <mxCell id="xTFKu_umEHdOj2WIsu32-9" value="Re-enter Credentials" style="whiteSpace=wrap;html=1;fillColor=#FFFFFF;strokeColor=#ff0000;rounded=1;" parent="1" vertex="1">
          <mxGeometry x="120" y="340" width="120" height="60" as="geometry" />
        </mxCell>
        <mxCell id="xTFKu_umEHdOj2WIsu32-10" value="" style="edgeStyle=orthogonalEdgeStyle;rounded=0;orthogonalLoop=1;jettySize=auto;html=1;exitX=0.5;exitY=1;exitDx=0;exitDy=0;entryX=0.5;entryY=0;entryDx=0;entryDy=0;" parent="1" source="xTFKu_umEHdOj2WIsu32-2" target="xTFKu_umEHdOj2WIsu32-6" edge="1">
          <mxGeometry relative="1" as="geometry">
            <mxPoint x="492.5" y="190" as="sourcePoint" />
            <mxPoint x="492.5" y="230" as="targetPoint" />
          </mxGeometry>
        </mxCell>
        <mxCell id="xTFKu_umEHdOj2WIsu32-11" value="" style="ellipse;html=1;shape=startState;fillColor=#FF3333;strokeColor=#ff0000;" parent="1" vertex="1">
          <mxGeometry x="390" y="40" width="30" height="30" as="geometry" />
        </mxCell>
        <mxCell id="nn4d1DukJBM_2EQo3KXl-3" value="" style="edgeStyle=orthogonalEdgeStyle;rounded=0;orthogonalLoop=1;jettySize=auto;html=1;" edge="1" parent="1" source="nn4d1DukJBM_2EQo3KXl-1" target="nn4d1DukJBM_2EQo3KXl-2">
          <mxGeometry relative="1" as="geometry" />
        </mxCell>
        <mxCell id="nn4d1DukJBM_2EQo3KXl-1" value="Navigate to &#39;Student Supervision Status&#39; Page" style="rounded=1;whiteSpace=wrap;html=1;fillColor=#FFFFFF;strokeColor=#ff0000;" vertex="1" parent="1">
          <mxGeometry x="328.75" y="340" width="152.5" height="60" as="geometry" />
        </mxCell>
        <mxCell id="nn4d1DukJBM_2EQo3KXl-5" value="" style="edgeStyle=orthogonalEdgeStyle;rounded=0;orthogonalLoop=1;jettySize=auto;html=1;" edge="1" parent="1" source="nn4d1DukJBM_2EQo3KXl-2" target="nn4d1DukJBM_2EQo3KXl-4">
          <mxGeometry relative="1" as="geometry" />
        </mxCell>
        <mxCell id="nn4d1DukJBM_2EQo3KXl-2" value="Select Student" style="rounded=1;whiteSpace=wrap;html=1;fillColor=#FFFFFF;strokeColor=#ff0000;" vertex="1" parent="1">
          <mxGeometry x="328.75" y="440" width="152.5" height="60" as="geometry" />
        </mxCell>
        <mxCell id="nn4d1DukJBM_2EQo3KXl-7" value="" style="edgeStyle=orthogonalEdgeStyle;rounded=0;orthogonalLoop=1;jettySize=auto;html=1;entryX=0.5;entryY=0;entryDx=0;entryDy=0;" edge="1" parent="1" source="nn4d1DukJBM_2EQo3KXl-4" target="nn4d1DukJBM_2EQo3KXl-8">
          <mxGeometry relative="1" as="geometry">
            <mxPoint x="405" y="640" as="targetPoint" />
          </mxGeometry>
        </mxCell>
        <mxCell id="nn4d1DukJBM_2EQo3KXl-4" value="Display supervision status" style="rounded=1;whiteSpace=wrap;html=1;fillColor=#FFFFFF;strokeColor=#ff0000;" vertex="1" parent="1">
          <mxGeometry x="328.75" y="540" width="152.5" height="60" as="geometry" />
        </mxCell>
        <mxCell id="nn4d1DukJBM_2EQo3KXl-10" value="Yes" style="edgeStyle=orthogonalEdgeStyle;rounded=0;orthogonalLoop=1;jettySize=auto;html=1;" edge="1" parent="1" source="nn4d1DukJBM_2EQo3KXl-8" target="nn4d1DukJBM_2EQo3KXl-9">
          <mxGeometry relative="1" as="geometry" />
        </mxCell>
        <mxCell id="nn4d1DukJBM_2EQo3KXl-12" value="" style="edgeStyle=orthogonalEdgeStyle;rounded=0;orthogonalLoop=1;jettySize=auto;html=1;" edge="1" parent="1" source="nn4d1DukJBM_2EQo3KXl-8" target="nn4d1DukJBM_2EQo3KXl-11">
          <mxGeometry relative="1" as="geometry" />
        </mxCell>
        <mxCell id="nn4d1DukJBM_2EQo3KXl-13" value="No" style="edgeLabel;html=1;align=center;verticalAlign=middle;resizable=0;points=[];" vertex="1" connectable="0" parent="nn4d1DukJBM_2EQo3KXl-12">
          <mxGeometry relative="1" as="geometry">
            <mxPoint as="offset" />
          </mxGeometry>
        </mxCell>
        <mxCell id="nn4d1DukJBM_2EQo3KXl-8" value="&lt;font style=&quot;font-size: 8px;&quot;&gt;Did PS reply within time range&lt;/font&gt;" style="rhombus;whiteSpace=wrap;html=1;fillColor=#FFFFFF;strokeColor=#ff0000;rounded=1;" vertex="1" parent="1">
          <mxGeometry x="332.5" y="640" width="145" height="80" as="geometry" />
        </mxCell>
        <mxCell id="nn4d1DukJBM_2EQo3KXl-9" value="Review the guidance given by PS" style="whiteSpace=wrap;html=1;fillColor=#FFFFFF;strokeColor=#ff0000;rounded=1;" vertex="1" parent="1">
          <mxGeometry x="120" y="650" width="120" height="60" as="geometry" />
        </mxCell>
        <mxCell id="nn4d1DukJBM_2EQo3KXl-15" style="edgeStyle=orthogonalEdgeStyle;rounded=0;orthogonalLoop=1;jettySize=auto;html=1;entryX=0.5;entryY=0;entryDx=0;entryDy=0;" edge="1" parent="1" source="nn4d1DukJBM_2EQo3KXl-11" target="nn4d1DukJBM_2EQo3KXl-14">
          <mxGeometry relative="1" as="geometry" />
        </mxCell>
        <mxCell id="nn4d1DukJBM_2EQo3KXl-11" value="Send notification Message to PS" style="whiteSpace=wrap;html=1;fillColor=#FFFFFF;strokeColor=#ff0000;rounded=1;" vertex="1" parent="1">
          <mxGeometry x="345" y="760" width="120" height="50" as="geometry" />
        </mxCell>
        <mxCell id="nn4d1DukJBM_2EQo3KXl-14" value="" style="ellipse;html=1;shape=endState;fillColor=#FF3333;strokeColor=#ff0000;" vertex="1" parent="1">
          <mxGeometry x="390" y="850" width="30" height="30" as="geometry" />
        </mxCell>
      </root>
    </mxGraphModel>
  </diagram>
</mxfile>
